<?xml version="1.0" encoding="UTF-8" standalone="no"?>
<svg
   xmlns:dc="http://purl.org/dc/elements/1.1/"
   xmlns:cc="http://creativecommons.org/ns#"
   xmlns:rdf="http://www.w3.org/1999/02/22-rdf-syntax-ns#"
   xmlns:svg="http://www.w3.org/2000/svg"
   xmlns="http://www.w3.org/2000/svg"
   xmlns:sodipodi="http://sodipodi.sourceforge.net/DTD/sodipodi-0.dtd"
   xmlns:inkscape="http://www.inkscape.org/namespaces/inkscape"
   version="1.1"
   width="1189mm"
   height="841mm"
   viewBox="0 0 4212.9954 2979.9238"
   id="svg909"
   sodipodi:docname="socialtrackerbox.svg"
   inkscape:version="0.92.2 5c3e80d, 2017-08-06">
  <metadata
     id="metadata915">
    <rdf:RDF>
      <cc:Work
         rdf:about="">
        <dc:format>image/svg+xml</dc:format>
        <dc:type
           rdf:resource="http://purl.org/dc/dcmitype/StillImage" />
        <dc:title></dc:title>
      </cc:Work>
    </rdf:RDF>
  </metadata>
  <defs
     id="defs913" />
  <sodipodi:namedview
     pagecolor="#ffffff"
     bordercolor="#666666"
     borderopacity="1"
     objecttolerance="10"
     gridtolerance="10"
     guidetolerance="10"
     inkscape:pageopacity="0"
     inkscape:pageshadow="2"
     inkscape:window-width="1398"
     inkscape:window-height="750"
     id="namedview911"
     showgrid="false"
     inkscape:zoom="0.98994949"
     inkscape:cx="469.01589"
     inkscape:cy="343.63165"
     inkscape:window-x="0"
     inkscape:window-y="0"
     inkscape:window-maximized="0"
     inkscape:current-layer="svg909" />
  <!-- Front-->
  <g
     transform="translate(22.50001,2424.4119)"
     id="g887">
    <polygon
       style="fill:none;stroke:#000000;stroke-width:0.90000075"
       points="62.007925,0 83.905581,0 83.905581,10.62993 104.52765,10.62993 104.52765,0 126.4253,0 126.4253,10.62993 147.04737,10.62993 147.04737,0 168.94502,0 168.94502,10.62993 189.56708,10.62993 189.56708,0 211.46474,0 211.46474,10.62993 232.0868,10.62993 232.0868,0 253.98446,0 253.98446,10.62993 274.60653,10.62993 274.60653,0 296.50418,0 296.50418,10.62993 317.12624,10.62993 317.12624,0 339.0239,0 339.0239,10.62993 359.64596,10.62993 359.64596,0 381.54362,0 381.54362,10.62993 402.16568,10.62993 402.16568,0 424.06334,0 424.06334,10.62993 444.68541,10.62993 444.68541,0 466.58306,0 466.58306,10.62993 496.94923,10.62993 496.94923,0 528.59099,0 528.59099,30.755931 517.96106,30.755931 517.96106,60.23627 528.59099,60.23627 528.59099,82.133926 517.96106,82.133926 517.96106,102.75599 528.59099,102.75599 528.59099,124.65365 517.96106,124.65365 517.96106,154.13398 528.59099,154.13398 528.59099,184.88992 496.94923,184.88992 496.94923,174.25999 466.58306,174.25999 466.58306,184.88992 444.68541,184.88992 444.68541,174.25999 424.06334,174.25999 424.06334,184.88992 402.16568,184.88992 402.16568,174.25999 381.54362,174.25999 381.54362,184.88992 359.64596,184.88992 359.64596,174.25999 339.0239,174.25999 339.0239,184.88992 317.12624,184.88992 317.12624,174.25999 296.50418,174.25999 296.50418,184.88992 274.60653,184.88992 274.60653,174.25999 253.98446,174.25999 253.98446,184.88992 232.0868,184.88992 232.0868,174.25999 211.46474,174.25999 211.46474,184.88992 189.56708,184.88992 189.56708,174.25999 168.94502,174.25999 168.94502,184.88992 147.04737,184.88992 147.04737,174.25999 126.4253,174.25999 126.4253,184.88992 104.52765,184.88992 104.52765,174.25999 83.905581,174.25999 83.905581,184.88992 62.007925,184.88992 62.007925,174.25999 31.641758,174.25999 31.641758,184.88992 0,184.88992 0,154.13398 10.62993,154.13398 10.62993,124.65365 0,124.65365 0,102.75599 10.62993,102.75599 10.62993,82.133926 0,82.133926 0,60.23627 10.62993,60.23627 10.62993,30.755931 0,30.755931 0,0 31.641758,0 31.641758,10.62993 62.007925,10.62993 "
       id="polygon885" />
  </g>
  <!-- Back-->
  <g
     transform="translate(572.01848,2424.7727)"
     id="g891">
    <polygon
       style="fill:none;stroke:#000000;stroke-width:0.90000075"
       points="62.007925,0 83.905581,0 83.905581,10.62993 104.52765,10.62993 104.52765,0 126.4253,0 126.4253,10.62993 147.04737,10.62993 147.04737,0 168.94502,0 168.94502,10.62993 189.56708,10.62993 189.56708,0 211.46474,0 211.46474,10.62993 232.0868,10.62993 232.0868,0 253.98446,0 253.98446,10.62993 274.60653,10.62993 274.60653,0 296.50418,0 296.50418,10.62993 317.12624,10.62993 317.12624,0 339.0239,0 339.0239,10.62993 359.64596,10.62993 359.64596,0 381.54362,0 381.54362,10.62993 402.16568,10.62993 402.16568,0 424.06334,0 424.06334,10.62993 444.68541,10.62993 444.68541,0 466.58306,0 466.58306,10.62993 496.94923,10.62993 496.94923,0 528.59099,0 528.59099,30.755931 517.96106,30.755931 517.96106,60.23627 528.59099,60.23627 528.59099,82.133926 517.96106,82.133926 517.96106,102.75599 528.59099,102.75599 528.59099,124.65365 517.96106,124.65365 517.96106,154.13398 528.59099,154.13398 528.59099,184.88992 496.94923,184.88992 496.94923,174.25999 466.58306,174.25999 466.58306,184.88992 444.68541,184.88992 444.68541,174.25999 424.06334,174.25999 424.06334,184.88992 402.16568,184.88992 402.16568,174.25999 381.54362,174.25999 381.54362,184.88992 359.64596,184.88992 359.64596,174.25999 339.0239,174.25999 339.0239,184.88992 317.12624,184.88992 317.12624,174.25999 296.50418,174.25999 296.50418,184.88992 274.60653,184.88992 274.60653,174.25999 253.98446,174.25999 253.98446,184.88992 232.0868,184.88992 232.0868,174.25999 211.46474,174.25999 211.46474,184.88992 189.56708,184.88992 189.56708,174.25999 168.94502,174.25999 168.94502,184.88992 147.04737,184.88992 147.04737,174.25999 126.4253,174.25999 126.4253,184.88992 104.52765,184.88992 104.52765,174.25999 83.905581,174.25999 83.905581,184.88992 62.007925,184.88992 62.007925,174.25999 31.641758,174.25999 31.641758,184.88992 0,184.88992 0,154.13398 10.62993,154.13398 10.62993,124.65365 0,124.65365 0,102.75599 10.62993,102.75599 10.62993,82.133926 0,82.133926 0,60.23627 10.62993,60.23627 10.62993,30.755931 0,30.755931 0,0 31.641758,0 31.641758,10.62993 62.007925,10.62993 "
       id="polygon889" />
  </g>
  <!-- Left-->
  <g
     transform="translate(794.41392,2663.9196)"
     id="g895">
    <polygon
       style="fill:none;stroke:#000000;stroke-width:0.90000075"
       points="42.51972,10.62993 42.51972,0 64.417376,0 64.417376,10.62993 85.03944,10.62993 85.03944,0 96.307166,0 96.307166,30.118135 106.9371,30.118135 106.9371,60.874066 96.307166,60.874066 96.307166,81.49613 106.9371,81.49613 106.9371,103.39379 96.307166,103.39379 96.307166,124.01585 106.9371,124.01585 106.9371,154.77178 96.307166,154.77178 96.307166,184.88992 85.03944,184.88992 85.03944,174.25999 64.417376,174.25999 64.417376,184.88992 42.51972,184.88992 42.51972,174.25999 21.897656,174.25999 21.897656,184.88992 10.62993,184.88992 10.62993,154.77178 0,154.77178 0,124.01585 10.62993,124.01585 10.62993,103.39379 0,103.39379 0,81.49613 10.62993,81.49613 10.62993,60.874066 0,60.874066 0,30.118135 10.62993,30.118135 10.62993,0 21.897656,0 21.897656,10.62993 "
       id="polygon893" />
  </g>
  <!-- Right-->
  <g
     transform="translate(632.36022,2669.345)"
     id="g899">
    <polygon
       style="fill:none;stroke:#000000;stroke-width:0.90000075"
       points="42.51972,10.62993 42.51972,0 64.417376,0 64.417376,10.62993 85.03944,10.62993 85.03944,0 96.307166,0 96.307166,30.118135 106.9371,30.118135 106.9371,60.874066 96.307166,60.874066 96.307166,81.49613 106.9371,81.49613 106.9371,103.39379 96.307166,103.39379 96.307166,124.01585 106.9371,124.01585 106.9371,154.77178 96.307166,154.77178 96.307166,184.88992 85.03944,184.88992 85.03944,174.25999 64.417376,174.25999 64.417376,184.88992 42.51972,184.88992 42.51972,174.25999 21.897656,174.25999 21.897656,184.88992 10.62993,184.88992 10.62993,154.77178 0,154.77178 0,124.01585 10.62993,124.01585 10.62993,103.39379 0,103.39379 0,81.49613 10.62993,81.49613 10.62993,60.874066 0,60.874066 0,30.118135 10.62993,30.118135 10.62993,0 21.897656,0 21.897656,10.62993 "
       id="polygon897" />
  </g>
  <!-- Top-->
  <g
     id="g4775">
    <g
       id="g903"
       transform="translate(26.517878,2646.2536)">
      <polygon
         id="polygon901"
         points="62.645721,10.62993 83.267785,10.62993 83.267785,0 105.16544,0 105.16544,10.62993 125.7875,10.62993 125.7875,0 147.68516,0 147.68516,10.62993 168.30723,10.62993 168.30723,0 190.20488,0 190.20488,10.62993 210.82694,10.62993 210.82694,0 232.7246,0 232.7246,10.62993 253.34667,10.62993 253.34667,0 275.24432,0 275.24432,10.62993 295.86639,10.62993 295.86639,0 317.76404,0 317.76404,10.62993 338.3861,10.62993 338.3861,0 360.28376,0 360.28376,10.62993 380.90582,10.62993 380.90582,0 402.80348,0 402.80348,10.62993 423.42554,10.62993 423.42554,0 445.3232,0 445.3232,10.62993 465.94527,10.62993 465.94527,0 497.58702,0 497.58702,10.62993 517.96106,10.62993 517.96106,21.25986 528.59099,21.25986 528.59099,43.157516 517.96106,43.157516 517.96106,63.77958 528.59099,63.77958 528.59099,85.677236 517.96106,85.677236 517.96106,96.307166 497.58702,96.307166 497.58702,106.9371 465.94527,106.9371 465.94527,96.307166 445.3232,96.307166 445.3232,106.9371 423.42554,106.9371 423.42554,96.307166 402.80348,96.307166 402.80348,106.9371 380.90582,106.9371 380.90582,96.307166 360.28376,96.307166 360.28376,106.9371 338.3861,106.9371 338.3861,96.307166 317.76404,96.307166 317.76404,106.9371 295.86639,106.9371 295.86639,96.307166 275.24432,96.307166 275.24432,106.9371 253.34667,106.9371 253.34667,96.307166 232.7246,96.307166 232.7246,106.9371 210.82694,106.9371 210.82694,96.307166 190.20488,96.307166 190.20488,106.9371 168.30723,106.9371 168.30723,96.307166 147.68516,96.307166 147.68516,106.9371 125.7875,106.9371 125.7875,96.307166 105.16544,96.307166 105.16544,106.9371 83.267785,106.9371 83.267785,96.307166 62.645721,96.307166 62.645721,106.9371 31.003963,106.9371 31.003963,96.307166 10.62993,96.307166 10.62993,85.677236 0,85.677236 0,63.77958 10.62993,63.77958 10.62993,43.157516 0,43.157516 0,21.25986 10.62993,21.25986 10.62993,10.62993 31.003963,10.62993 31.003963,0 62.645721,0 "
         style="fill:none;stroke:#000000;stroke-width:0.90000075" />
    </g>
  </g>
  <!-- Bottom-->
  <g
     transform="translate(26.090587,2784.5237)"
     id="g907">
    <polygon
       style="fill:none;stroke:#000000;stroke-width:0.90000075"
       points="62.645721,0 62.645721,10.62993 83.267785,10.62993 83.267785,0 105.16544,0 105.16544,10.62993 125.7875,10.62993 125.7875,0 147.68516,0 147.68516,10.62993 168.30723,10.62993 168.30723,0 190.20488,0 190.20488,10.62993 210.82694,10.62993 210.82694,0 232.7246,0 232.7246,10.62993 253.34667,10.62993 253.34667,0 275.24432,0 275.24432,10.62993 295.86639,10.62993 295.86639,0 317.76404,0 317.76404,10.62993 338.3861,10.62993 338.3861,0 360.28376,0 360.28376,10.62993 380.90582,10.62993 380.90582,0 402.80348,0 402.80348,10.62993 423.42554,10.62993 423.42554,0 445.3232,0 445.3232,10.62993 465.94527,10.62993 465.94527,0 497.58702,0 497.58702,10.62993 517.96106,10.62993 517.96106,21.25986 528.59099,21.25986 528.59099,43.157516 517.96106,43.157516 517.96106,63.77958 528.59099,63.77958 528.59099,85.677236 517.96106,85.677236 517.96106,96.307166 497.58702,96.307166 497.58702,106.9371 465.94527,106.9371 465.94527,96.307166 445.3232,96.307166 445.3232,106.9371 423.42554,106.9371 423.42554,96.307166 402.80348,96.307166 402.80348,106.9371 380.90582,106.9371 380.90582,96.307166 360.28376,96.307166 360.28376,106.9371 338.3861,106.9371 338.3861,96.307166 317.76404,96.307166 317.76404,106.9371 295.86639,106.9371 295.86639,96.307166 275.24432,96.307166 275.24432,106.9371 253.34667,106.9371 253.34667,96.307166 232.7246,96.307166 232.7246,106.9371 210.82694,106.9371 210.82694,96.307166 190.20488,96.307166 190.20488,106.9371 168.30723,106.9371 168.30723,96.307166 147.68516,96.307166 147.68516,106.9371 125.7875,106.9371 125.7875,96.307166 105.16544,96.307166 105.16544,106.9371 83.267785,106.9371 83.267785,96.307166 62.645721,96.307166 62.645721,106.9371 31.003963,106.9371 31.003963,96.307166 10.62993,96.307166 10.62993,85.677236 0,85.677236 0,63.77958 10.62993,63.77958 10.62993,43.157516 0,43.157516 0,21.25986 10.62993,21.25986 10.62993,10.62993 31.003963,10.62993 31.003963,0 "
       id="polygon905" />
  </g>
  <rect
     style="fill:none;fill-opacity:1;stroke:#000000;stroke-width:0.35433099;stroke-miterlimit:4;stroke-dasharray:none;stroke-dashoffset:0;stroke-opacity:1"
     id="rect4606"
     width="455.75757"
     height="112.05653"
     x="58.916721"
     y="2460.8286" />
</svg>
